<svg xmlns="http://www.w3.org/2000/svg" viewBox="0 0 24 24">
  <defs>
    <linearGradient id="a" x1="1.219" x2="13.202" y1="-2.857" y2="16.549" gradientTransform="matrix(1.3333333 0 0 1.4117232 -3.9999999 -2.8234464)" gradientUnits="userSpaceOnUse">
      <stop stop-color="#00B300"/>
      <stop offset="1" stop-color="#008000"/>
    </linearGradient>
  </defs>
  <path fill="url(#a)" d="M12 0A9.9999998 10.587924 0 0 0 2 10.587924c0 2.727449 1.4186667 5.364548 3.024 7.504721 1.6266666 2.169818 3.5706666 3.993764 4.8733332 5.113261 1.2346668 1.058792 2.9706668 1.058792 4.2053328 0 1.302667-1.119497 3.246667-2.943443 4.873333-5.113261 1.605334-2.138761 3.024-4.777272 3.024-7.504721A9.9999998 10.587924 0 0 0 12 0"/>
  <circle cx="12" cy="11" r="8" fill="#fff"/>
  <g fill-rule="evenodd">
    <path fill="#522619" d="m15.722115 11.1291575-.3522525.32877.04695.2817975.2583225.258315.140895-.04695.1878675-.21135-.023475-.3522525zm-7.44423 0-.258315.281805-.023475.2348325.04695.140895.1878675.1878675.09393.023475.23484-.21135.070425-.1878675v-.140895Zm-1.0802325-.21135.023475.0939375.1409025.140895.1878675.11742.2817975-.023475.3052875-.281805v-.04695l-.32877-.30528-.3052875.023475Zm8.9941275-.32877-.258315.2583225-.070425.140895.3052875.2583225.30528.023475.3052875-.258315-.023475-.1878675-.281805-.21135zm-1.4559675.11742-.1409025.258315.375735.3052875h.2817975l.2583225-.281805-.04695-.09393-.375735-.3052875Zm-5.84736-.11742-.21135.1409025-.2348325.2348325.258315.2583225.0939375.04695h.2348325l.3522525-.281805v-.070425l-.1878675-.2348325-.21135-.0939375ZM15.76908 9.88454l-.258315.1878675-.1409025.258315.023475.164385.258315.3052875h.04695l.1643775-.164385.164385-.2348325-.1174125-.3522525Zm-7.53816 0-.11742.164385-.023475.1174125-.070425.070425-.023475.21135.2817975.30528h.070425l.2817975-.3287625v-.1409025l-.1409025-.2348325-.21135-.164385Zm3.663405-4.79061-5.72994 5.682975-.070425.3052875 5.7299475 5.8238775.258315.04695 5.776905-5.75343.04695-.30528-5.63601-5.7064575Zm.070425 9.933465h.070425l.51663.5636025.1409025.21135v.070425l-.587085.6105675-.2348325-.023475-.54012-.587085v-.09393l.070425-.11742zm-1.3385475.04695 1.3385475-1.4090025h.04695l1.2446175 1.2446175.1174125.164385v.070425l-.2817975.30528-.0939375.023475-.9628125-.93933h-.0939375l-.9158475.93933h-.070425l-.3287625-.3287625Zm.469665-1.9960875.023475.7749525-.04695.1643775-.63405.6810225-.070425.04695-.140895-.023475-.375735-.375735v-.1409025L11.001975 13.07825Zm1.855185-.04695h.04695L14.14869 14.181995l.023475.1409025-.4227.4227-.1409025-.023475-.6105675-.6105675-.070425-.11742-.023475-.8688825zm-.375735-1.432485v1.972605l-.09393.023475-.4227-.4227h-.11742l-.3992175.4227h-.04695l-.04695-.070425.023475-1.80822.09393-.023475.3522525.3522525.11742.04695.469665-.493155Zm.3522525-.04695.11742.023475 1.8317025 1.80822.04695.070425-.023475.1643775-.32877.32877-.1174125.023475-1.4794575-1.5029325-.070425-.1878675Zm-1.855185 0 .04695.04695v.65754l-.04695.1643775-1.5029325 1.5264225H9.42855l-.32877-.3522525v-.164385l1.855185-1.855185Zm-2.6301375 1.29159 3.5225025-3.52251h.0939375L15.48726 12.749525l.09393.1878675-.258315.2817975-.1409025-.023475-2.44227-2.3952975H12.62229l-.5636025.5870775H11.96475l-.51663-.5401125-.164385-.04695-.5166375.4461825L8.841465 13.19573l-.1409025.023475-.258315-.258315Zm5.565555-5.21331.3052875.1409025.6575325.63405.164385.30528v.3052875l-.164385.352245-.2817975.2583225-.1878675.070425-.32877-.023475-.30528-.3052875V8.992175l.2817975-.164385.0939375.09393v.2348325l.18786.070425.21135-.1878675v-.32877l-.30528-.2817975-.3992175-.023475-.1878675.070425-.2348325.21135-.1409025.54012.0939375.3287625.30528.32877.4461825.2348325.493155-.09393.2348325-.1409025.32877-.32877.1878675-.352245.140895-.070425 1.8786675 1.8317025v.0939375l-1.5029325 1.47945-.09393-.023475L12.62229 9.156545l.023475-.1643775.2348325-.281805zm-4.01565 0L11.072385 8.66342l.30528.375735v.1174125l-1.8317025 1.878675-.1174125-.023475.04695.09393L8.1369525 12.5147H8.043015L6.5166 11.0587325v-.0939375l1.855185-1.8317025.1878675.11742.1878675.32877.2348325.2348325.5401125.2817975.21135.04695.63405-.375735.2113575-.2817975.04695-.4931475-.0939375-.23484-.258315-.258315-.5166375-.09393-.21135.09393-.21135.281805.04695.2817975.21135.164385.1643775-.023475.023475-.2348325.1174125-.1409025.21135.1174125.070425.164385-.023475.258315-.352245.32877h-.32877l-.258315-.1409025-.2348325-.258315-.11742-.30528v-.281805l.11742-.2348325L9.78072 7.7006ZM11.96475 5.540135h.070425l1.737765 1.7142825v.0939375l-.3287625.352245-1.38552 1.338555h-.11742l-1.7142825-1.6908v-.0939375l.070425-.09393z"/>
    <path fill="#176461" d="m11.988255 15.027395-.5401125.6105675-.0939375.1409025v.09393l.5166375.5636025.21135.023475.587085-.587085v-.070425l-.070425-.1174125Zm-1.3385475.04695v.070425l.2817975.2817975.070425.023475.93933-.93933h.11742l.7514625.7749525.2113575.1643775.070425-.023475.258315-.2817975-.023475-.0939375-.11742-.1643775-1.197645-1.1976525h-.04695Zm.4227-1.9960875-.070425.023475-.3522525.3287625v.8219175l.04695.1409025.3522525-.375735.023475-.070425zm1.8786675-.023475v.9158475l.0939375.164385.3287625.30528.023475-.9628125-.352245-.375735Zm-.375735-1.432485h-.04695l-.4931475.4931475-.0939375-.023475-.3992175-.3992175-.04695.023475.023475 1.8786675.4227-.4461825h.11742l.3992175.3992175h.09393zm.3992175-.070425-.04695.04695.023475.798435.3052875.3522525.9158475.915855v-.96282zm-1.9256325 0-.11742.070425-1.103715 1.103715.04695.070425-.04695.4227.023475.375735h.04695l1.127205-1.15068.04695-.0939375.023475-.7044975Zm2.9589-3.8982375-.3992175.32877-.93933 1.009785-.023475.1643775.2817975.3522525 1.5733875 1.5264225.09393-.0939375.070425-.1878675-.4696725-.63405-.3287625-.1409025-.375735-.352245-.1409025-.3522525.04695-.3992175.0939375-.1878675.21135-.21135.1409025-.070425.4227-.023475.21135.09393.1643775.164385.04695.1174125-.04695.32877-.1643775.1409025-.164385.023475-.0939375-.070425V8.92178l-.1174125-.070425-.1878675.11742-.04695.09393v.2348325l.070425.164385.1409025.1409025.164385.070425h.258315l.2817975-.1409025.21135-.2348325.11742-.30528V8.71043l-.0939375-.21135-.7044975-.7044975-.21135-.1409025Zm-4.0391325 0-.2113575.0939375-.7514625.72798-.11742.258315.04695.4227.164385.2583225.32877.2348325.375735.023475.140895-.070425.164385-.1878675.04695-.1409025-.070425-.32877-.09393-.070425h-.11742l-.070425.0939375-.023475.2348325-.04695.04695h-.140895L9.35817 9.06266l-.04695-.09393v-.1878675l.0939375-.1878675.164385-.1409025.18786-.070425h.2583225l.3287625.140895.21135.2348325.0939375.23484v.3757275l-.1409025.281805-.164385.164385-.63405.375735-.3992175.5870775.164385.2583225.469665-.4227 1.4090025-1.455975-.023475-.140895-.30528-.375735-.86889-.8688825Z"/>
    <path fill="#ae2227" d="m15.5342475 9.1565525-.2348325.3992175-.3522525.3522525-.2348325.1409025-.2348325.070425h-.2348325v.04695l.4227.5636025.1643775-.09393h.0939375l.04695-.04695.11742-.023475.09393.04695.3522525.3287625v.04695l-.32877.32877-.2817975-.04695-.3052875-.281805h-.04695l-.04695.0939375.32877.375735 1.0332675 1.0332675.09393.023475 1.47945-1.4559675v-.0939375L16.02741 9.5087675l-.4227-.3522525Zm.1409025 1.972605h.070425l.258315.258315.023475.0939375v.258315l-.21135.2348325-.140895.04695-.281805-.281805-.04695-.2817975zm.51663-.5636025.2817975.023475.3052875.23484.023475.1878675-.32877.2817975-.30528-.023475-.32877-.281805.070425-.140895zm-.3992175-.681015.11742.11742.140895.3992175-.1643775.2348325-.1878675.1878675h-.04695l-.2817975-.32877-.023475-.164385.1409025-.258315.1174125-.11742.11742-.070425ZM8.44227 9.1565525h-.070425l-.7279875.6810225-1.103715 1.1271975v.0939375l1.526415 1.4559675.070425-.023475.774945-.7749525.54012-.6105675v-.04695l-.09393-.04695-.32877.2817975H8.794515l-.0939375-.04695-.258315-.2583225v-.070425l.4461825-.3522525h.0939375l.1643775.070425.164385.1174125.3992175-.587085-.3287625-.09393-.3992175-.2348325-.2583225-.258315-.140895-.2583225Zm-.1878675 1.972605h.070425l.32877.32877v.140895l-.070425.1878675-.2583225.23484-.09393-.023475-.21135-.21135-.04695-.140895.023475-.2348325Zm-1.0802325-.21135.3287625-.30528.3052875-.023475.3522525.32877v.04695l-.32877.3052875-.2817975.023475-.1878675-.11742-.164385-.1643775Zm1.05675-1.05675.1878675.09393.2348325.32877v.1409025l-.30528.352245h-.070425l-.30528-.3287625.023475-.21135ZM11.9178075 7.1135l-.1878675.164385-.023475.1409025.258315.258315h.0939375l.258315-.2348325.023475-.09393-.1878675-.21135Zm.04695-1.5498975-1.15068 1.15068-.493155.44619-.070425.09393V7.34834l1.6908 1.6673175.070425.023475 1.408995-1.338555.32877-.352245V7.254395l-1.7142825-1.6908Zm.023475.798435.1409025.070425.1878675.1878675.21135.30528h.2348325l.1878675.070425.070425.070425.070425.164385-.070425.2348325-.5166375.4227-.4227.4227h-.1409025l-.9863025-.9628125V7.18388l.164385-.21135.3522525-.04695.21135-.2817975z"/>
    <path fill="#e27b15" d="M8.4657525 12.8434475v.1174125l.1878675.1878675.1409025.04695L11.260275 10.77689l.164385.023475.563595.563595.0939375-.023475.54012-.5636025h.140895L15.22896 13.19567h.070425l.2348325-.2348325-.11742-.258315-3.3816-3.358125h-.070425z"/>
    <path fill="#0a4051" d="m13.42074 13.50098-.023475.9158475-.04695.023475.258315.2583225.1409025.023475.3992175-.3992175-.023475-.1409025zm-2.794515-.04695-.75147.7514625v.1409025l.3992175.375735h.09393l.3052875-.3052875-.04695-.164385Zm-.8219175-.704505-.704505.7279875v.070425l.0939375.1409025.2817975.258315.0939375-.023475.30528-.3052875-.04695-.023475-.023475-.1878675.04695-.563595zm4.391385-.023475v.96282l.2583225.258315h.070425l.3522525-.32877.04695-.1174125-.070425-.11742zm-2.160465-6.3405075-.070425.023475-.4931475.54012-.3522525.04695-.09393.09393-.04695.11742V7.32485l.04695.0939375.9158475.8688825h.1409025l.469665-.469665.4227-.32877.070425-.1174125v-.21135l-.070425-.11742-.2348325-.09393h-.21135l-.32877-.4227Zm-.070425.681015h.11742l.2817975.258315V7.41881l-.30528.2817975h-.0939375L11.683005 7.41881l.023475-.1409025Z"/>
    <path fill="#f8f3ea" d="M11.800395 5 6 10.894325v.2348325L11.8238775 17h.3757275L18 11.199605v-.39921L12.199605 5Zm.09393.070425.3522525.070425 5.682975 5.72994-.023475.30528-5.84736 5.8238775-.21135-.04695-5.7769125-5.84736.04695-.30528z"/>
  </g>
</svg>